<svg version="1.1" xmlns="http://www.w3.org/2000/svg" xmlns:xlink="http://www.w3.org/1999/xlink" width="54.46765" height="54.46287" viewBox="0,0,54.46765,54.46287"><defs><linearGradient x1="225.97867" y1="170.67991" x2="224.24536" y2="173.47989" gradientUnits="userSpaceOnUse" id="color-1"><stop offset="0" stop-color="#fff9c4" stop-opacity="0.6"/><stop offset="0.9495" stop-color="#fff9c4" stop-opacity="0"/></linearGradient><linearGradient x1="227.64342" y1="168.96618" x2="232.79892" y2="164.56623" gradientUnits="userSpaceOnUse" id="color-2"><stop offset="0" stop-color="#fff9c4" stop-opacity="0.6"/><stop offset="0.9888" stop-color="#fff9c4" stop-opacity="0.0067"/><stop offset="1" stop-color="#fff9c4" stop-opacity="0"/></linearGradient><linearGradient x1="223.673" y1="175.27007" x2="223.01656" y2="178.76376" gradientUnits="userSpaceOnUse" id="color-3"><stop offset="0" stop-color="#ffc2c8" stop-opacity="0.8"/><stop offset="0.9304" stop-color="#ffcdd2" stop-opacity="0"/></linearGradient><linearGradient x1="224.05568" y1="173.52156" x2="227.87353" y2="167.89366" gradientUnits="userSpaceOnUse" id="color-4"><stop offset="0" stop-color="#ffc2c8" stop-opacity="0.8"/><stop offset="0.9304" stop-color="#ffcdd2" stop-opacity="0"/></linearGradient><linearGradient x1="231.15553" y1="165.4752" x2="228.22224" y2="167.67515" gradientUnits="userSpaceOnUse" id="color-5"><stop offset="0" stop-color="#80deea" stop-opacity="0.5"/><stop offset="0.9264" stop-color="#80deea" stop-opacity="0"/></linearGradient><linearGradient x1="234.936" y1="164.40427" x2="239.73594" y2="163.11543" gradientUnits="userSpaceOnUse" id="color-6"><stop offset="0" stop-color="#80deea" stop-opacity="0.5"/><stop offset="0.9466" stop-color="#80deea" stop-opacity="0"/></linearGradient><linearGradient x1="255.54205" y1="173.18468" x2="256.89759" y2="178.29575" gradientUnits="userSpaceOnUse" id="color-7"><stop offset="0" stop-color="#ffffff" stop-opacity="0.5"/><stop offset="0.907" stop-color="#ffffff" stop-opacity="0"/></linearGradient><linearGradient x1="254.04055" y1="171.15262" x2="252.95166" y2="169.24152" gradientUnits="userSpaceOnUse" id="color-8"><stop offset="0" stop-color="#ffffff" stop-opacity="0.5"/><stop offset="0.907" stop-color="#ffffff" stop-opacity="0"/></linearGradient><linearGradient x1="226.68893" y1="189.74141" x2="227.2667" y2="190.67474" gradientUnits="userSpaceOnUse" id="color-9"><stop offset="0" stop-color="#ffffff" stop-opacity="0.5"/><stop offset="0.907" stop-color="#ffffff" stop-opacity="0"/></linearGradient><linearGradient x1="224.98815" y1="187.9748" x2="223.21041" y2="182.686" gradientUnits="userSpaceOnUse" id="color-10"><stop offset="0" stop-color="#ffffff" stop-opacity="0.5"/><stop offset="0.907" stop-color="#ffffff" stop-opacity="0"/></linearGradient><linearGradient x1="254.10164" y1="189.06536" x2="255.78802" y2="186.23675" gradientUnits="userSpaceOnUse" id="color-11"><stop offset="0" stop-color="#fff9c4" stop-opacity="0.6"/><stop offset="0.9495" stop-color="#fff9c4" stop-opacity="0"/></linearGradient><linearGradient x1="252.44169" y1="190.84443" x2="247.36023" y2="195.32999" gradientUnits="userSpaceOnUse" id="color-12"><stop offset="0" stop-color="#fff9c4" stop-opacity="0.6"/><stop offset="0.9888" stop-color="#fff9c4" stop-opacity="0.0067"/><stop offset="1" stop-color="#fff9c4" stop-opacity="0"/></linearGradient><linearGradient x1="256.3719" y1="184.39476" x2="256.96992" y2="180.89053" gradientUnits="userSpaceOnUse" id="color-13"><stop offset="0" stop-color="#ffc2c8" stop-opacity="0.8"/><stop offset="0.9304" stop-color="#ffcdd2" stop-opacity="0"/></linearGradient><linearGradient x1="256.00828" y1="186.22132" x2="252.28486" y2="191.91229" gradientUnits="userSpaceOnUse" id="color-14"><stop offset="0" stop-color="#ffc2c8" stop-opacity="0.8"/><stop offset="0.9304" stop-color="#ffcdd2" stop-opacity="0"/></linearGradient><linearGradient x1="248.93262" y1="194.33707" x2="251.82888" y2="192.08835" gradientUnits="userSpaceOnUse" id="color-15"><stop offset="0" stop-color="#80deea" stop-opacity="0.5"/><stop offset="0.9264" stop-color="#80deea" stop-opacity="0"/></linearGradient><linearGradient x1="245.15173" y1="195.49652" x2="240.37379" y2="196.86539" gradientUnits="userSpaceOnUse" id="color-16"><stop offset="0" stop-color="#80deea" stop-opacity="0.5"/><stop offset="0.9466" stop-color="#80deea" stop-opacity="0"/></linearGradient></defs><g transform="translate(-212.76618,-152.76856)"><g data-paper-data="{&quot;isPaintingLayer&quot;:true}" fill-rule="nonzero" stroke="none" stroke-width="1" stroke-linecap="butt" stroke-linejoin="miter" stroke-miterlimit="10" stroke-dasharray="" stroke-dashoffset="0" style="mix-blend-mode: normal"><path d="M266.87291,175.59552c2.42709,14.82529 -7.64437,28.84792 -22.46965,31.275c-14.82529,2.42709 -28.84314,-7.64436 -31.275,-22.46965c-2.43186,-14.82529 7.64436,-28.84313 22.46965,-31.27022c14.82529,-2.43186 28.84314,7.64436 31.275,22.46487zM246.71568,178.90171c-0.60677,-3.71707 -4.09929,-6.22538 -7.81636,-5.61861c-3.71707,0.60677 -6.22538,4.0993 -5.61861,7.81637c0.60677,3.71707 4.09929,6.22538 7.81636,5.61861c3.76485,-0.61632 6.27316,-4.10885 5.61861,-7.81636z" fill="#b9e4ea"/><g><g><path d="M216.04267,167.04339c0.98899,-1.78687 1.9302,-3.07207 1.9302,-3.07207l16.70771,11.76276c0,0 -0.52077,0.61155 -0.84565,1.37121c-0.32488,0.75966 -0.50167,1.4572 -0.50167,1.4572l-18.76691,-8.30369c0,0 0.49211,-1.42376 1.47632,-3.21541z" fill="url(#color-1)"/><path d="M236.61556,174.08576c-1.29954,0.77877 -1.93498,1.64831 -1.93498,1.64831l-16.70771,-11.76276c0,0 2.25031,-3.1963 5.7906,-5.83361c3.64063,-2.70897 7.06148,-3.77919 7.06148,-3.77919l8.47091,18.87202c0,0 -1.38076,0.07644 -2.6803,0.85521z" fill="url(#color-2)"/></g><g><path d="M213.41492,173.98065c0.37744,-1.69132 0.81699,-2.78542 0.81699,-2.78542l19.21124,6.94682c0,0 -0.16722,0.45866 -0.21977,1.15621c-0.04778,0.69755 -0.03345,1.28521 -0.03345,1.28521l-20.25756,-3.58808c0,0 0.10511,-1.32343 0.48255,-3.01475z" fill="url(#color-3)"/><path d="M233.44315,178.14205l-19.21124,-6.94682c0,0 0.64022,-2.15475 2.41276,-5.13128c1.54799,-2.59909 3.2823,-4.45284 3.2823,-4.45284l15.39862,13.43019c0,0 -0.64022,0.56377 -1.08932,1.32343c-0.54466,0.92688 -0.7931,1.77732 -0.7931,1.77732z" fill="url(#color-4)"/></g><g><path d="M227.06011,156.03551l10.28645,17.69192c0,0 -0.7501,0.29622 -1.45721,0.84566c-0.70711,0.54944 -1.24221,1.17054 -1.24221,1.17054l-14.97339,-13.88407c0,0 1.45721,-1.68176 3.31574,-3.13897c1.85376,-1.45721 4.07062,-2.68508 4.07062,-2.68508z" fill="url(#color-5)"/><path d="M239.91219,173.18754c-1.38554,0.00956 -2.57041,0.53033 -2.57041,0.53033l-10.28645,-17.68237c0,0 2.69464,-1.44765 5.63772,-2.26942c2.80453,-0.77877 5.52783,-0.93643 5.52783,-0.93643l4.19962,20.807c0,0 -1.12277,-0.45866 -2.50831,-0.44911z" fill="url(#color-6)"/></g><g><path d="M267.16435,178.14205l-20.34356,2.96219c0,0 0.63544,-2.42709 -1.11799,-4.95928l18.52803,-8.56169c1.1371,2.21687 2.70419,6.16805 2.93352,10.55878z" fill="url(#color-7)"/><path d="M264.23082,167.58327l-18.52803,8.56169c-0.55421,-0.80266 -1.36165,-1.47154 -2.18342,-1.96842l15.31261,-13.83151c2.63731,2.47486 4.48151,5.48483 5.39883,7.23825z" fill="url(#color-8)"/></g><g><path d="M237.17933,186.20207l-14.54817,14.74884c-2.18342,-1.80598 -4.09452,-3.95118 -5.63772,-6.37826l17.72537,-10.27689c0.66888,0.81699 1.50975,1.47154 2.46052,1.90632z" fill="url(#color-9)"/><g fill="url(#color-10)"><path d="M234.72358,184.29576l-17.72536,10.27689c-1.91109,-3.00519 -3.25841,-6.44038 -3.86996,-10.17178c-0.02866,-0.15767 -0.04299,-0.3201 -0.06688,-0.47777l20.14767,-4.34296c-0.03345,0.49688 -0.01434,1.00811 0.07166,1.51932c0.20066,1.2231 0.71188,2.30764 1.44287,3.19629z"/></g></g><g><path d="M263.97283,192.46089c-0.95554,1.80598 -1.87765,3.10553 -1.87765,3.10553l-16.70293,-11.26588c0,0 0.51122,-0.61633 0.82655,-1.38554c0.31533,-0.76922 0.47777,-1.46676 0.47777,-1.46676l18.70002,7.77814c0,0 -0.46821,1.42854 -1.42376,3.23452z" fill="url(#color-11)"/><path d="M243.49071,185.97274c1.28521,-0.79788 1.90631,-1.67699 1.90631,-1.67699l16.70294,11.26588c0,0 -2.19776,3.23452 -5.69983,5.93394c-3.59763,2.77108 -6.99937,3.89863 -6.99937,3.89863l-8.58079,-18.5137c0,0 1.38076,-0.1051 2.67075,-0.90776z" fill="url(#color-12)"/></g><g><path d="M266.48591,185.48541c-0.34877,1.70087 -0.76921,2.79975 -0.76921,2.79975l-19.02013,-6.45471c0,0 0.16245,-0.46344 0.20067,-1.16099c0.03822,-0.69755 0.01433,-1.2852 0.01433,-1.2852l20.00912,3.07685c0,0 -0.08122,1.32343 -0.43477,3.0243z" fill="url(#color-13)"/><path d="M246.7109,181.83045l19.01058,6.45471c0,0 -0.60199,2.16431 -2.32675,5.1695c-1.50499,2.62297 -3.20586,4.50539 -3.20586,4.50539l-15.30306,-13.00019c0,0 0.63066,-0.57333 1.06544,-1.34254c0.53033,-0.93643 0.75965,-1.78687 0.75965,-1.78687z" fill="url(#color-14)"/></g><g><path d="M253.1465,203.65033l-10.58267,-17.33837c0,0 0.98421,-0.32488 1.68176,-0.88388c0.69755,-0.56377 1.08932,-1.13233 1.08932,-1.13233l15.09762,13.41108c0,0 -1.42854,1.71043 -3.26319,3.1963c-1.82987,1.48587 -4.02284,2.74719 -4.02284,2.74719z" fill="url(#color-15)"/><path d="M240.00297,186.88529c1.38554,-0.03345 2.56086,-0.57333 2.56086,-0.57333l10.57789,17.33837c0,0 -2.67075,1.49543 -5.59949,2.36497c-2.78542,0.83132 -5.50872,1.03199 -5.50872,1.03199l-4.54361,-20.56333c0,0 1.12754,0.43478 2.51308,0.40133z" fill="url(#color-16)"/></g></g><path d="M251.00608,180.00058c0,6.03427 -4.90673,10.89321 -11.00789,10.89321c-6.10116,0 -11.00788,-4.85417 -11.00788,-10.89321c0,-6.03904 4.90672,-10.89321 11.00788,-10.89321c6.10116,0 11.00789,4.85895 11.00789,10.89321zM246.87812,179.95281c0,-3.76962 -3.07208,-6.80348 -6.87993,-6.80826c-3.80785,-0.00478 -6.87992,3.03863 -6.87992,6.80826c0,3.76962 3.07207,6.80826 6.87992,6.80826c3.85085,0 6.92293,-3.03863 6.87993,-6.80826z" fill="#6c9eb4" opacity="0.4"/><path d="M239.99819,154.13397c-14.25196,0 -25.86661,11.61465 -25.86661,25.86661c0,14.25196 11.61465,25.86661 25.86661,25.86661c14.25196,0 25.86662,-11.61944 25.86662,-25.86661c0,-14.24718 -11.61466,-25.86661 -25.86662,-25.86661M239.99819,188.1705c-4.49106,0 -8.16991,-3.67885 -8.16991,-8.16992c0,-4.49106 3.67884,-8.16991 8.16991,-8.16991c4.49106,0 8.16992,3.67407 8.16992,8.16991c0,4.49584 -3.67885,8.16992 -8.16992,8.16992M267.22646,180.00058c0,15.02118 -12.20709,27.22826 -27.22827,27.22826c-15.02117,0 -27.22826,-12.20709 -27.22826,-27.22826c0,-15.02117 12.20709,-27.22827 27.22826,-27.22827c15.02118,0 27.22827,12.20709 27.22827,27.22827zM246.80645,180.00058c0,-3.76485 -3.04341,-6.80826 -6.80826,-6.80826c-3.76485,0 -6.80826,3.03863 -6.80826,6.80826c0,3.76962 3.04341,6.80826 6.80826,6.80826c3.81262,0 6.85126,-3.04341 6.80826,-6.80826z" fill="#82aec0"/></g></g></svg>