<svg version="1.1" xmlns="http://www.w3.org/2000/svg" xmlns:xlink="http://www.w3.org/1999/xlink" width="25.15869" height="26.23599" viewBox="0,0,25.15869,26.23599"><g transform="translate(-227.42066,-166.92709)"><g data-paper-data="{&quot;isPaintingLayer&quot;:true}" fill-rule="evenodd" stroke-miterlimit="10" stroke-dasharray="" stroke-dashoffset="0" style="mix-blend-mode: normal"><g><path d="M236.12228,185.29738c0.20395,0.10197 0.63734,0.33142 0.02549,1.1982c-0.61185,0.86678 -2.37091,1.04524 -2.57486,1.04524c-0.7903,0.02549 -1.75906,0.02549 -2.8298,-0.33142c-3.11023,-1.01975 -3.13572,-4.35942 -2.14147,-4.89478c0.96876,-0.53537 1.40215,1.52962 2.8043,2.77881c0.61185,0.56086 1.35116,0.76481 1.96301,0.89228c0.86678,0.15296 2.52387,-0.8158 2.75332,-0.68833z" fill="#c3a6ff" stroke="#001026" stroke-width="1.2" stroke-linecap="round" stroke-linejoin="round"/><path d="M229.79985,183.2324c0.4079,0.68833 1.1982,1.65709 1.1982,1.65709c0,0 -0.94327,-0.22944 -1.47863,0.20395c-0.43339,0.33142 -0.33142,0.89228 -0.28043,1.07073c-0.33142,-0.33142 -0.73932,-0.7903 -0.99425,-1.68258c-0.25494,-0.89228 0,-1.96301 0.50987,-2.11597c0.50987,-0.10197 0.63734,0.28043 1.04524,0.86678z" fill="#ffffff" stroke="none" stroke-width="1" stroke-linecap="butt" stroke-linejoin="miter"/></g><path d="M237.39697,187.94873c-0.45889,0.30592 -2.03949,1.42765 -4.05349,2.06499l-0.10197,0.02549c-0.10197,0.02549 -0.15296,0.15296 -0.10197,0.25494c0.43339,0.61185 1.2237,1.83554 -0.17846,2.26894c-1.35116,0.43339 -3.87504,-3.16121 -2.8043,-4.10448c0.48438,-0.35691 0.91777,-0.17846 1.14722,-0.07648c0.12747,0.05099 0.25494,0.05099 0.38241,0.02549c0.30592,-0.10197 0.86678,-0.30592 1.30018,-0.53537c1.09623,-0.56086 1.35116,-0.7903 1.86104,-1.17271c0.50987,-0.38241 1.68258,-1.32567 2.62585,-0.50987c0.8158,0.68833 0.35691,1.45314 -0.07648,1.75906z" fill="#c3a6ff" stroke="#001026" stroke-width="1.2" stroke-linecap="round" stroke-linejoin="round"/><path d="M241.45046,182.64604c0.12747,0.10197 1.68258,1.93752 2.19246,1.47863c0.61185,-0.53537 1.45314,-1.58061 2.37091,-0.73932c0.91777,0.84129 -0.8158,2.26894 -1.55511,2.65134c-1.75906,0.7903 -3.18671,-0.71382 -3.49263,-1.12172c-0.30592,-0.4079 -0.84129,-1.09623 -0.84129,-1.75906c0.02549,-0.71382 0.89228,-0.89228 1.32567,-0.50987z" fill="#c3a6ff" stroke="#001026" stroke-width="1.2" stroke-linecap="round" stroke-linejoin="round"/><g><path d="M241.47595,188.58607c0.53537,0.48438 1.70808,1.47863 1.70808,1.47863c0,0 3.64559,-0.63734 3.64559,1.1982c0,1.09623 -1.83554,1.35116 -4.30843,1.12172c-0.15296,-0.02549 -0.30592,-0.07648 -0.43339,-0.17846c-0.56086,-0.48438 -2.16696,-1.91203 -3.18671,-2.90628c-1.50413,-1.47863 -2.75332,-2.44739 -2.75332,-2.44739c-2.16696,-2.11597 -0.4079,-3.00825 0.28043,-4.23195c0.63734,-1.04524 0.91777,-0.84129 2.44739,-0.53537c0.86678,0.12747 1.37666,0.20395 1.93752,0.17846c0.84129,-0.02549 0.68833,1.1982 0.45889,1.83554c0,0 -0.35691,0.94327 -0.68833,1.42765c-0.4079,0.58635 -0.71382,0.96876 -1.01975,1.1982z" fill="#c3a6ff" stroke="#001026" stroke-width="1.2" stroke-linecap="round" stroke-linejoin="round"/><path d="M239.33449,186.69954c0,0 -0.38241,-0.30592 -0.7903,-0.68833c-0.50987,-0.45889 -1.01975,-0.84129 -0.50987,-1.63159c0.45889,-0.61185 0.89228,-1.42765 2.03949,-0.68833c1.09623,0.68833 0.61185,1.32567 0.61185,1.32567c-0.56086,1.14722 -1.35116,1.68258 -1.35116,1.68258z" fill="#ffffff" stroke="none" stroke-width="1" stroke-linecap="butt" stroke-linejoin="miter"/></g><path d="M235.48494,184.60906c0.56086,0.71382 1.42765,1.6061 0.33142,2.34542c-1.50413,0.84129 -2.75332,-1.70808 -3.00825,-2.60035c-0.22944,-0.7903 0.43339,-1.30018 0.99425,-1.73357c1.09623,-0.7903 2.014,-1.50413 3.03375,-1.12172c1.27468,0.45889 0.35691,1.47863 -0.28043,1.93752c-0.38241,0.28043 -0.76481,0.58635 -1.04524,0.76481c-0.07648,0.12747 -0.10197,0.28043 -0.02549,0.4079z" fill="#c3a6ff" stroke="#001026" stroke-width="1.2" stroke-linecap="round" stroke-linejoin="round"/><g><path d="M243.51545,167.42632c0.07648,-0.05099 0.20395,-0.02549 0.22944,0.07648l0.66284,2.72782c0,0 1.63159,1.1982 2.11597,2.03949c0.8158,1.40215 0.84129,2.54937 0.84129,2.54937c0,0 1.81005,0.53537 2.11597,1.98851c0.30592,1.45314 -0.8158,4.20646 -5.60861,5.14972c-4.79281,0.94327 -8.64235,-0.35691 -10.4524,-3.26319c-1.81005,-2.90628 1.04524,-6.37342 0.89228,-6.16947l-0.53537,-4.56337c-0.02549,-0.10197 0.10197,-0.17846 0.20395,-0.12747l3.08473,2.014c0,0 1.14722,-0.43339 2.34542,-0.48438c0.71382,-0.05099 1.32567,0 1.91203,0.10197z" fill="#c3a6ff" stroke="#001026" stroke-width="1.2" stroke-linecap="butt" stroke-linejoin="miter"/><path d="M247.28851,174.92146c0,0 1.75906,0.45889 2.06499,1.91203c0.30592,1.45314 -0.91777,4.07899 -5.65959,4.99676c-6.16947,1.27468 -9.10124,-2.3964 -7.39316,-5.09873c1.70808,-2.72782 4.63985,-0.4079 6.78132,-0.56086c1.83554,-0.12747 2.03949,-1.73357 4.20646,-1.24919z" fill="#ffffff" stroke="none" stroke-width="1" stroke-linecap="butt" stroke-linejoin="miter"/><path d="M239.258,177.64928c0,-0.10197 0.10197,-0.17846 0.20395,-0.15296c0.48438,0.17846 1.86104,0.58635 3.39066,0.68833c1.37666,0.07648 2.19246,0 2.57486,-0.07648c0.12747,-0.02549 0.22944,0.10197 0.17846,0.22944c-0.22944,0.68833 -1.1982,2.60035 -3.87504,2.44739c-2.31992,-0.25494 -2.54937,-1.88653 -2.47289,-3.13572z" fill="#ffffff" stroke="#001026" stroke-width="1.2" stroke-linecap="round" stroke-linejoin="round"/><path d="M251.97934,175.20189c-1.1982,0.96876 -3.03375,0.99425 -3.03375,0.99425" fill="none" stroke="#001026" stroke-width="1.2" stroke-linecap="round" stroke-linejoin="round"/><path d="M251.64793,178.05718c-1.6061,0.12747 -2.60035,-0.35691 -2.60035,-0.35691" fill="none" stroke="#001026" stroke-width="1.2" stroke-linecap="round" stroke-linejoin="round"/><path d="M242.98008,175.50782c0.53537,0 1.09623,0.05099 1.12172,0.22944c0.02549,0.35691 -0.35691,1.07073 -0.76481,1.09623c-0.45889,0.05099 -1.52962,-0.58635 -1.52962,-0.99425c-0.02549,-0.30592 0.66284,-0.33142 1.17271,-0.33142z" fill="#001026" stroke="#001026" stroke-width="1.2" stroke-linecap="round" stroke-linejoin="round"/><path d="M231.50793,175.12541c0,0 2.19246,0.71382 3.08473,1.50413" fill="none" stroke="#001026" stroke-width="1.2" stroke-linecap="round" stroke-linejoin="round"/><path d="M234.66914,177.52182c-1.09623,0.43339 -2.98276,0.15296 -2.98276,0.15296" fill="none" stroke="#001026" stroke-width="1.2" stroke-linecap="round" stroke-linejoin="round"/><g><path d="M245.98833,172.52506c0.73932,1.14722 0.76481,2.44739 0.05099,2.90628c-0.71382,0.45889 -1.88653,-0.07648 -2.65134,-1.2237c-0.73932,-1.14722 -0.76481,-2.44739 -0.05099,-2.90628c0.71382,-0.48438 1.91203,0.07648 2.65134,1.2237z" fill="#ffffff" stroke="#001026" stroke-width="1.2" stroke-linecap="round" stroke-linejoin="round"/><path d="M245.88636,173.9782c0,0.28043 -0.20395,0.50987 -0.45889,0.50987c-0.25494,0 -0.45889,-0.22944 -0.45889,-0.50987c0,-0.28043 0.20395,-0.50987 0.45889,-0.50987c0.25494,0 0.45889,0.22944 0.45889,0.50987" fill="#001026" stroke="none" stroke-width="1" stroke-linecap="butt" stroke-linejoin="miter"/></g><g><path d="M239.6659,173.23888c0.76481,1.12172 0.71382,2.49838 0.02549,2.98276c-0.84129,0.48438 -1.96301,0.12747 -2.72782,-0.99425c-0.7903,-1.12172 -0.84129,-2.57486 -0.05099,-3.13572c0.7903,-0.58635 1.98851,0.02549 2.75332,1.14722z" fill="#ffffff" stroke="#001026" stroke-width="1.2" stroke-linecap="round" stroke-linejoin="round"/><path d="M239.51294,174.71751c0,0.28043 -0.20395,0.50987 -0.45889,0.50987c-0.25494,0 -0.45889,-0.22944 -0.45889,-0.50987c0,-0.28043 0.20395,-0.50987 0.45889,-0.50987c0.25494,0.02549 0.45889,0.22944 0.45889,0.50987" fill="#001026" stroke="none" stroke-width="1" stroke-linecap="butt" stroke-linejoin="miter"/></g></g></g></g></svg>