<svg version="1.1" xmlns="http://www.w3.org/2000/svg" xmlns:xlink="http://www.w3.org/1999/xlink" width="137.56972" height="56.91454" viewBox="0,0,137.56972,56.91454"><g transform="translate(-177.33863,-148.23207)"><g data-paper-data="{&quot;isPaintingLayer&quot;:true}" stroke-miterlimit="10" stroke-dasharray="" stroke-dashoffset="0" style="mix-blend-mode: normal"><text transform="translate(246.09586,187.02959) scale(0.5,0.5)" font-size="40" xml:space="preserve" fill="#945eff" fill-rule="nonzero" stroke="none" stroke-width="1" stroke-linecap="butt" stroke-linejoin="miter" stroke-miterlimit="10" stroke-dasharray="" stroke-dashoffset="0" font-family="Sans Serif" font-weight="normal" text-anchor="start" style="mix-blend-mode: normal"><tspan x="0" dy="0">lilacver</tspan></text><path d="M177.33863,172.4209v-24.18883h62.48781v24.18883z" fill="none" fill-rule="nonzero" stroke="none" stroke-width="0" stroke-linecap="butt" stroke-linejoin="miter"/><g fill-rule="evenodd"><path d="M198.76123,189.66471c0.41774,0.20887 1.30543,0.67882 0.05222,2.45421c-1.25321,1.77538 -4.8562,2.1409 -5.27394,2.1409c-1.61873,0.05222 -3.60299,0.05222 -5.79611,-0.67882c-6.3705,-2.08869 -6.42271,-8.92914 -4.38624,-10.0257c1.98425,-1.09656 2.87195,3.13303 5.74389,5.69167c1.25321,1.14878 2.76751,1.56652 4.02072,1.8276c1.77538,0.3133 5.1695,-1.67095 5.63946,-1.40986z" fill="#c3a6ff" stroke="#001026" stroke-width="1.2" stroke-linecap="round" stroke-linejoin="round"/><path d="M185.81136,185.43512c0.83548,1.40986 2.45421,3.39412 2.45421,3.39412c0,0 -1.93204,-0.46995 -3.0286,0.41774c-0.88769,0.67882 -0.67882,1.8276 -0.57439,2.19312c-0.67882,-0.67882 -1.5143,-1.61873 -2.03647,-3.44633c-0.52217,-1.8276 0,-4.02072 1.04434,-4.33403c1.04434,-0.20887 1.30543,0.57439 2.1409,1.77538z" fill="#ffffff" stroke="none" stroke-width="1" stroke-linecap="butt" stroke-linejoin="miter"/></g><path d="M201.37209,195.0953c-0.93991,0.62661 -4.17738,2.92416 -8.30253,4.22959l-0.20887,0.05222c-0.20887,0.05222 -0.3133,0.3133 -0.20887,0.52217c0.88769,1.25321 2.50643,3.75964 -0.36552,4.64733c-2.76751,0.88769 -7.93701,-6.47493 -5.74389,-8.40697c0.99213,-0.73104 1.87982,-0.36552 2.34977,-0.15665c0.26109,0.10443 0.52217,0.10443 0.78326,0.05222c0.62661,-0.20887 1.77538,-0.62661 2.66308,-1.09656c2.24534,-1.14878 2.76751,-1.61873 3.81186,-2.40199c1.04434,-0.78326 3.44633,-2.71529 5.37837,-1.04434c1.67095,1.40986 0.73104,2.97638 -0.15665,3.60299z" fill="#c3a6ff" fill-rule="evenodd" stroke="#001026" stroke-width="1.2" stroke-linecap="round" stroke-linejoin="round"/><path d="M209.67462,184.23412c0.26109,0.20887 3.44633,3.96851 4.49068,3.0286c1.25321,-1.09656 2.97638,-3.23747 4.8562,-1.5143c1.87982,1.72317 -1.67095,4.64733 -3.18525,5.43059c-3.60299,1.61873 -6.52715,-1.46208 -7.15376,-2.29756c-0.62661,-0.83548 -1.72317,-2.24534 -1.72317,-3.60299c0.05222,-1.46208 1.8276,-1.8276 2.71529,-1.04434z" fill="#c3a6ff" fill-rule="evenodd" stroke="#001026" stroke-width="1.2" stroke-linecap="round" stroke-linejoin="round"/><g fill-rule="evenodd"><path d="M209.72684,196.40073c1.09656,0.99213 3.49855,3.0286 3.49855,3.0286c0,0 7.46706,-1.30543 7.46706,2.45421c0,2.24534 -3.75964,2.76751 -8.82471,2.29756c-0.3133,-0.05222 -0.62661,-0.15665 -0.88769,-0.36552c-1.14878,-0.99213 -4.43846,-3.91629 -6.52715,-5.95276c-3.08081,-3.0286 -5.63946,-5.01285 -5.63946,-5.01285c-4.43846,-4.33403 -0.83548,-6.16163 0.57439,-8.66805c1.30543,-2.1409 1.87982,-1.72317 5.01285,-1.09656c1.77538,0.26109 2.81973,0.41774 3.96851,0.36552c1.72317,-0.05222 1.40986,2.45421 0.93991,3.75964c0,0 -0.73104,1.93204 -1.40986,2.92416c-0.83548,1.201 -1.46208,1.98425 -2.08869,2.45421z" fill="#c3a6ff" stroke="#001026" stroke-width="1.2" stroke-linecap="round" stroke-linejoin="round"/><path d="M205.3406,192.53666c0,0 -0.78326,-0.62661 -1.61873,-1.40986c-1.04434,-0.93991 -2.08869,-1.72317 -1.04434,-3.3419c0.93991,-1.25321 1.8276,-2.92416 4.17738,-1.40986c2.24534,1.40986 1.25321,2.71529 1.25321,2.71529c-1.14878,2.34977 -2.76751,3.44633 -2.76751,3.44633z" fill="#ffffff" stroke="none" stroke-width="1" stroke-linecap="butt" stroke-linejoin="miter"/></g><path d="M197.4558,188.25485c1.14878,1.46208 2.92416,3.28968 0.67882,4.80398c-3.08081,1.72317 -5.63946,-3.49855 -6.16163,-5.32615c-0.46995,-1.61873 0.88769,-2.66308 2.03647,-3.55077c2.24534,-1.61873 4.12516,-3.08081 6.21385,-2.29756c2.61086,0.93991 0.73104,3.0286 -0.57439,3.96851c-0.78326,0.57439 -1.56652,1.201 -2.1409,1.56652c-0.15665,0.26109 -0.20887,0.57439 -0.05222,0.83548z" fill="#c3a6ff" fill-rule="evenodd" stroke="#001026" stroke-width="1.2" stroke-linecap="round" stroke-linejoin="round"/><g fill-rule="evenodd"><path d="M213.90422,153.06046c0.15665,-0.10443 0.41774,-0.05222 0.46995,0.15665l1.35765,5.58724c0,0 3.3419,2.45421 4.33403,4.17738c1.67095,2.87195 1.72317,5.22172 1.72317,5.22172c0,0 3.70742,1.09656 4.33403,4.07294c0.62661,2.97638 -1.67095,8.61584 -11.48778,10.54787c-9.81683,1.93204 -17.70163,-0.73104 -21.40905,-6.6838c-3.70742,-5.95276 2.1409,-13.0543 1.8276,-12.63656l-1.09656,-9.34688c-0.05222,-0.20887 0.20887,-0.36552 0.41774,-0.26109l6.31828,4.12516c0,0 2.34977,-0.88769 4.80398,-0.99213c1.46208,-0.10443 2.71529,0 3.91629,0.20887z" fill="#c3a6ff" stroke="#001026" stroke-width="1.2" stroke-linecap="butt" stroke-linejoin="miter"/><path d="M221.63236,168.41231c0,0 3.60299,0.93991 4.22959,3.91629c0.62661,2.97638 -1.87982,8.35475 -11.59222,10.23457c-12.63656,2.61086 -18.64154,-4.90842 -15.14299,-10.44344c3.49855,-5.58724 9.50353,-0.83548 13.88977,-1.14878c3.75964,-0.26109 4.17738,-3.55077 8.61584,-2.55864z" fill="#ffffff" stroke="none" stroke-width="1" stroke-linecap="butt" stroke-linejoin="miter"/><path d="M205.18394,173.99955c0,-0.20887 0.20887,-0.36552 0.41774,-0.3133c0.99213,0.36552 3.81186,1.201 6.94489,1.40986c2.81973,0.15665 4.49068,0 5.27394,-0.15665c0.26109,-0.05222 0.46995,0.20887 0.36552,0.46995c-0.46995,1.40986 -2.45421,5.32615 -7.93701,5.01285c-4.75176,-0.52217 -5.22172,-3.86407 -5.06507,-6.42271z" fill="#ffffff" stroke="#001026" stroke-width="1.2" stroke-linecap="round" stroke-linejoin="round"/><path d="M231.24032,168.9867c-2.45421,1.98425 -6.21385,2.03647 -6.21385,2.03647" fill="none" stroke="#001026" stroke-width="1.2" stroke-linecap="round" stroke-linejoin="round"/><path d="M230.5615,174.83503c-3.28968,0.26109 -5.32615,-0.73104 -5.32615,-0.73104" fill="none" stroke="#001026" stroke-width="1.2" stroke-linecap="round" stroke-linejoin="round"/><path d="M212.80765,169.61331c1.09656,0 2.24534,0.10443 2.29756,0.46995c0.05222,0.73104 -0.73104,2.19312 -1.56652,2.24534c-0.93991,0.10443 -3.13303,-1.201 -3.13303,-2.03647c-0.05222,-0.62661 1.35765,-0.67882 2.40199,-0.67882z" fill="#001026" stroke="#001026" stroke-width="1.2" stroke-linecap="round" stroke-linejoin="round"/><path d="M189.30992,168.83005c0,0 4.49068,1.46208 6.31828,3.08081" fill="none" stroke="#001026" stroke-width="1.2" stroke-linecap="round" stroke-linejoin="round"/><path d="M195.78485,173.73847c-2.24534,0.88769 -6.10941,0.3133 -6.10941,0.3133" fill="none" stroke="#001026" stroke-width="1.2" stroke-linecap="round" stroke-linejoin="round"/><g><path d="M218.96928,163.5039c1.5143,2.34977 1.56652,5.01285 0.10443,5.95276c-1.46208,0.93991 -3.86407,-0.15665 -5.43059,-2.50643c-1.5143,-2.34977 -1.56652,-5.01285 -0.10443,-5.95276c1.46208,-0.99213 3.91629,0.15665 5.43059,2.50643z" fill="#ffffff" stroke="#001026" stroke-width="1.2" stroke-linecap="round" stroke-linejoin="round"/><path d="M218.76041,166.48028c0,0.57439 -0.41774,1.04434 -0.93991,1.04434c-0.52217,0 -0.93991,-0.46995 -0.93991,-1.04434c0,-0.57439 0.41774,-1.04434 0.93991,-1.04434c0.52217,0 0.93991,0.46995 0.93991,1.04434" fill="#001026" stroke="none" stroke-width="1" stroke-linecap="butt" stroke-linejoin="miter"/></g><g><path d="M206.01942,164.96598c1.56652,2.29756 1.46208,5.11729 0.05222,6.10941c-1.72317,0.99213 -4.02072,0.26109 -5.58724,-2.03647c-1.61873,-2.29756 -1.72317,-5.27394 -0.10443,-6.42271c1.61873,-1.201 4.07294,0.05222 5.63946,2.34977z" fill="#ffffff" stroke="#001026" stroke-width="1.2" stroke-linecap="round" stroke-linejoin="round"/><path d="M205.70612,167.99457c0,0.57439 -0.41774,1.04434 -0.93991,1.04434c-0.52217,0 -0.93991,-0.46995 -0.93991,-1.04434c0,-0.57439 0.41774,-1.04434 0.93991,-1.04434c0.52217,0.05222 0.93991,0.46995 0.93991,1.04434" fill="#001026" stroke="none" stroke-width="1" stroke-linecap="butt" stroke-linejoin="miter"/></g></g></g></g></svg>