<svg version="1.1" xmlns="http://www.w3.org/2000/svg" xmlns:xlink="http://www.w3.org/1999/xlink" width="121.0913" height="46.71101" viewBox="0,0,121.0913,46.71101"><g transform="translate(-183.67405,-121.75328)"><g data-paper-data="{&quot;isPaintingLayer&quot;:true}" fill-rule="nonzero" stroke="none" stroke-linecap="butt" stroke-linejoin="miter" stroke-miterlimit="10" stroke-dasharray="" stroke-dashoffset="0" style="mix-blend-mode: normal"><path d="M183.67405,168.07678v-46.32349h119.66902v46.32349z" fill="none" stroke-width="0"/><text transform="translate(262.82785,153.40315) scale(0.5,0.5)" font-size="40" xml:space="preserve" fill="#37474f" fill-rule="nonzero" stroke="none" stroke-width="1" stroke-linecap="butt" stroke-linejoin="miter" stroke-miterlimit="10" stroke-dasharray="" stroke-dashoffset="0" font-family="Sans Serif" font-weight="normal" text-anchor="start" style="mix-blend-mode: normal"><tspan x="0" dy="0">cmd</tspan></text><path d="M200.60843,130.78066h32.97319c1.30076,0 2.35523,1.05447 2.35523,2.35523v4.71046h-37.68365v-4.71046c0,-1.30076 1.05447,-2.35523 2.35523,-2.35523z" fill="#cfd8dd" stroke-width="1"/><path d="M200.60843,134.31349c0,-0.65038 0.52724,-1.17761 1.17761,-1.17761c0.65038,0 1.17761,0.52724 1.17761,1.17761c0,0.65038 -0.52724,1.17761 -1.17761,1.17761c-0.65038,0 -1.17761,-0.52724 -1.17761,-1.17761z" fill="#92a6ad" stroke-width="1"/><path d="M204.14127,134.31349c0,-0.65038 0.52724,-1.17761 1.17761,-1.17761c0.65038,0 1.17761,0.52724 1.17761,1.17761c0,0.65038 -0.52724,1.17761 -1.17761,1.17761c-0.65038,0 -1.17761,-0.52724 -1.17761,-1.17761z" fill="#92a6ad" stroke-width="1"/><path d="M207.67411,134.31349c0,-0.65038 0.52724,-1.17761 1.17761,-1.17761c0.65038,0 1.17761,0.52724 1.17761,1.17761c0,0.65038 -0.52724,1.17761 -1.17761,1.17761c-0.65038,0 -1.17761,-0.52724 -1.17761,-1.17761z" fill="#92a6ad" stroke-width="1"/><path d="M198.2532,137.84634h37.68365v28.26273c0,1.30076 -1.05447,2.35523 -2.35523,2.35523h-32.97319c-1.30076,0 -2.35523,-1.05447 -2.35523,-2.35523z" fill="#37474f" stroke-width="1"/><path d="M201.78604,142.5568l1.17761,-1.17761l3.53284,3.53284l-3.53284,3.53284l-1.17761,-1.17761l2.35523,-2.35523z" fill="#ffffff" stroke-width="1"/><path d="M207.67411,148.44487v-1.17761h4.71046v1.17761z" fill="#ffffff" stroke-width="1"/></g></g></svg>