<svg version="1.1" xmlns="http://www.w3.org/2000/svg" xmlns:xlink="http://www.w3.org/1999/xlink" width="114.50271" height="36.9688" viewBox="0,0,114.50271,36.9688"><g transform="translate(-187.25128,-125.81297)"><g data-paper-data="{&quot;isPaintingLayer&quot;:true}" fill-rule="nonzero" stroke="none" stroke-width="1" stroke-linecap="butt" stroke-linejoin="miter" stroke-miterlimit="10" stroke-dasharray="" stroke-dashoffset="0" style="mix-blend-mode: normal"><path d="M218.2476,126.64179v27.21954h-0.00664c-0.08963,1.58006 -0.96928,3.25971 -1.91201,4.2489c-2.13441,2.24063 -5.22814,2.76179 -6.91111,1.15849c-1.67964,-1.6033 -1.31119,-4.72027 0.82323,-6.9609c1.14853,-1.20828 3.13025,-2.35349 4.91279,-2.11117v-15.94003l-18.01801,2.61905v19.72089h-0.02324c-0.13278,1.53359 -0.98256,3.13689 -1.89541,4.09621c-2.13441,2.24063 -5.23146,2.76179 -6.91111,1.15849c-1.68296,-1.6033 -1.31119,-4.72027 0.82323,-6.9609c1.13525,-1.19168 3.08709,-2.32694 4.85636,-2.11781v-22.63537c0,-0.53111 0.3917,-0.98256 0.91617,-1.05891l22.39637,-3.25639c0.50124,-0.07303 0.94936,0.31203 0.94936,0.81991z" fill="#546e7a"/><text transform="translate(245.12117,152.59091) scale(0.5,0.5)" font-size="40" xml:space="preserve" fill="#546e7a" fill-rule="nonzero" stroke="none" stroke-width="1" stroke-linecap="butt" stroke-linejoin="miter" stroke-miterlimit="10" stroke-dasharray="" stroke-dashoffset="0" font-family="Sans Serif" font-weight="normal" text-anchor="start" style="mix-blend-mode: normal"><tspan x="0" dy="0">Music</tspan></text></g></g></svg>