<svg version="1.1" xmlns="http://www.w3.org/2000/svg" xmlns:xlink="http://www.w3.org/1999/xlink" width="171.02015" height="60.79454" viewBox="0,0,171.02015,60.79454"><g transform="translate(-154.56557,-149.64053)"><g data-paper-data="{&quot;isPaintingLayer&quot;:true}" stroke-miterlimit="10" stroke-dasharray="" stroke-dashoffset="0" style="mix-blend-mode: normal"><g fill-rule="evenodd"><path d="M174.4055,192.58034c0.48434,0.24217 1.51357,0.78706 0.06054,2.84552c-1.45303,2.05846 -5.63049,2.48226 -6.11483,2.48226c-1.87683,0.06054 -4.17746,0.06054 -6.72026,-0.78706c-7.38624,-2.42172 -7.44678,-10.35284 -5.0856,-11.62424c2.30063,-1.2714 3.32986,3.63257 6.65972,6.59918c1.45303,1.33194 3.20877,1.81629 4.6618,2.119c2.05846,0.36326 5.99375,-1.93737 6.53863,-1.63466z" fill="#c3a6ff" stroke="#001026" stroke-width="1.2" stroke-linecap="round" stroke-linejoin="round"/><path d="M159.39085,187.67637c0.96869,1.63466 2.84552,3.93529 2.84552,3.93529c0,0 -2.24009,-0.54489 -3.51149,0.48434c-1.02923,0.78706 -0.78706,2.119 -0.66597,2.5428c-0.78706,-0.78706 -1.75574,-1.87683 -2.36117,-3.99583c-0.60543,-2.119 0,-4.6618 1.21086,-5.02506c1.21086,-0.24217 1.51357,0.66597 2.48226,2.05846z" fill="#ffffff" stroke="none" stroke-width="1" stroke-linecap="butt" stroke-linejoin="miter"/></g><path d="M177.43264,198.87681c-1.08977,0.72651 -4.84343,3.3904 -9.62632,4.90398l-0.24217,0.06054c-0.24217,0.06054 -0.36326,0.36326 -0.24217,0.60543c1.02923,1.45303 2.90606,4.35909 -0.4238,5.38832c-3.20877,1.02923 -9.20252,-7.50732 -6.65972,-9.74741c1.15032,-0.8476 2.17954,-0.4238 2.72443,-0.18163c0.30271,0.12109 0.60543,0.12109 0.90814,0.06054c0.72651,-0.24217 2.05846,-0.72651 3.08769,-1.2714c2.60335,-1.33194 3.20877,-1.87683 4.41963,-2.78497c1.21086,-0.90814 3.99583,-3.14823 6.23592,-1.21086c1.93737,1.63466 0.8476,3.45095 -0.18163,4.17746z" fill="#c3a6ff" fill-rule="evenodd" stroke="#001026" stroke-width="1.2" stroke-linecap="round" stroke-linejoin="round"/><path d="M187.05897,186.28388c0.30271,0.24217 3.99583,4.60126 5.20669,3.51149c1.45303,-1.2714 3.45095,-3.75366 5.63049,-1.75574c2.17954,1.99792 -1.93737,5.38832 -3.69312,6.29646c-4.17746,1.87683 -7.56786,-1.6952 -8.29438,-2.66389c-0.72651,-0.96869 -1.99792,-2.60335 -1.99792,-4.17746c0.06054,-1.6952 2.119,-2.119 3.14823,-1.21086z" fill="#c3a6ff" fill-rule="evenodd" stroke="#001026" stroke-width="1.2" stroke-linecap="round" stroke-linejoin="round"/><g fill-rule="evenodd"><path d="M187.11951,200.39038c1.2714,1.15032 4.05638,3.51149 4.05638,3.51149c0,0 8.65764,-1.51357 8.65764,2.84552c0,2.60335 -4.35909,3.20877 -10.23175,2.66389c-0.36326,-0.06054 -0.72651,-0.18163 -1.02923,-0.4238c-1.33194,-1.15032 -5.14615,-4.54072 -7.56786,-6.90189c-3.57203,-3.51149 -6.53863,-5.81212 -6.53863,-5.81212c-5.14615,-5.02506 -0.96869,-7.14406 0.66597,-10.05012c1.51357,-2.48226 2.17954,-1.99792 5.81212,-1.2714c2.05846,0.30271 3.26932,0.48434 4.60126,0.4238c1.99792,-0.06054 1.63466,2.84552 1.08977,4.35909c0,0 -0.8476,2.24009 -1.63466,3.3904c-0.96869,1.39249 -1.6952,2.30063 -2.42172,2.84552z" fill="#c3a6ff" stroke="#001026" stroke-width="1.2" stroke-linecap="round" stroke-linejoin="round"/><path d="M182.0339,195.9102c0,0 -0.90814,-0.72651 -1.87683,-1.63466c-1.21086,-1.08977 -2.42172,-1.99792 -1.21086,-3.87475c1.08977,-1.45303 2.119,-3.3904 4.84343,-1.63466c2.60335,1.63466 1.45303,3.14823 1.45303,3.14823c-1.33194,2.72443 -3.20877,3.99583 -3.20877,3.99583z" fill="#ffffff" stroke="none" stroke-width="1" stroke-linecap="butt" stroke-linejoin="miter"/></g><path d="M172.89192,190.94569c1.33194,1.6952 3.3904,3.8142 0.78706,5.56995c-3.57203,1.99792 -6.53863,-4.05638 -7.14406,-6.17538c-0.54489,-1.87683 1.02923,-3.08769 2.36117,-4.11692c2.60335,-1.87683 4.78289,-3.57203 7.20461,-2.66389c3.02715,1.08977 0.8476,3.51149 -0.66597,4.60126c-0.90814,0.66597 -1.81629,1.39249 -2.48226,1.81629c-0.18163,0.30271 -0.24217,0.66597 -0.06054,0.96869z" fill="#c3a6ff" fill-rule="evenodd" stroke="#001026" stroke-width="1.2" stroke-linecap="round" stroke-linejoin="round"/><g fill-rule="evenodd"><path d="M191.96294,150.13976c0.18163,-0.12109 0.48434,-0.06054 0.54489,0.18163l1.57412,6.47809c0,0 3.87475,2.84552 5.02506,4.84343c1.93737,3.32986 1.99792,6.05429 1.99792,6.05429c0,0 4.29855,1.2714 5.02506,4.72235c0.72651,3.45095 -1.93737,9.98958 -13.31944,12.22967c-11.38207,2.24009 -20.52405,-0.8476 -24.82259,-7.74949c-4.29855,-6.90189 2.48226,-15.13573 2.119,-14.65139l-1.2714,-10.83718c-0.06054,-0.24217 0.24217,-0.4238 0.48434,-0.30271l7.32569,4.78289c0,0 2.72443,-1.02923 5.56995,-1.15032c1.6952,-0.12109 3.14823,0 4.54072,0.24217z" fill="#c3a6ff" stroke="#001026" stroke-width="1.2" stroke-linecap="butt" stroke-linejoin="miter"/><path d="M200.92329,167.93938c0,0 4.17746,1.08977 4.90398,4.54072c0.72651,3.45095 -2.17954,9.68687 -13.44053,11.86641c-14.65139,3.02715 -21.61382,-5.69103 -17.55745,-12.10858c4.05638,-6.47809 11.01881,-0.96869 16.10442,-1.33194c4.35909,-0.30271 4.84343,-4.11692 9.98958,-2.9666z" fill="#ffffff" stroke="none" stroke-width="1" stroke-linecap="butt" stroke-linejoin="miter"/><path d="M181.85228,174.41747c0,-0.24217 0.24217,-0.4238 0.48434,-0.36326c1.15032,0.4238 4.41963,1.39249 8.05221,1.63466c3.26932,0.18163 5.20669,0 6.11483,-0.18163c0.30271,-0.06054 0.54489,0.24217 0.4238,0.54489c-0.54489,1.63466 -2.84552,6.17538 -9.20252,5.81212c-5.50941,-0.60543 -6.05429,-4.48018 -5.87266,-7.44678z" fill="#ffffff" stroke="#001026" stroke-width="1.2" stroke-linecap="round" stroke-linejoin="round"/><path d="M212.06319,168.60535c-2.84552,2.30063 -7.20461,2.36117 -7.20461,2.36117" fill="none" stroke="#001026" stroke-width="1.2" stroke-linecap="round" stroke-linejoin="round"/><path d="M211.27613,175.38616c-3.8142,0.30271 -6.17538,-0.8476 -6.17538,-0.8476" fill="none" stroke="#001026" stroke-width="1.2" stroke-linecap="round" stroke-linejoin="round"/><path d="M190.69154,169.33187c1.2714,0 2.60335,0.12109 2.66389,0.54489c0.06054,0.8476 -0.8476,2.5428 -1.81629,2.60335c-1.08977,0.12109 -3.63257,-1.39249 -3.63257,-2.36117c-0.06054,-0.72651 1.57412,-0.78706 2.78497,-0.78706z" fill="#001026" stroke="#001026" stroke-width="1.2" stroke-linecap="round" stroke-linejoin="round"/><path d="M163.44723,168.42372c0,0 5.20669,1.6952 7.32569,3.57203" fill="none" stroke="#001026" stroke-width="1.2" stroke-linecap="round" stroke-linejoin="round"/><path d="M170.95455,174.11476c-2.60335,1.02923 -7.08352,0.36326 -7.08352,0.36326" fill="none" stroke="#001026" stroke-width="1.2" stroke-linecap="round" stroke-linejoin="round"/><g><path d="M197.8356,162.24834c1.75574,2.72443 1.81629,5.81212 0.12109,6.90189c-1.6952,1.08977 -4.48018,-0.18163 -6.29646,-2.90606c-1.75574,-2.72443 -1.81629,-5.81212 -0.12109,-6.90189c1.6952,-1.15032 4.54072,0.18163 6.29646,2.90606z" fill="#ffffff" stroke="#001026" stroke-width="1.2" stroke-linecap="round" stroke-linejoin="round"/><path d="M197.59343,165.69929c0,0.66597 -0.48434,1.21086 -1.08977,1.21086c-0.60543,0 -1.08977,-0.54489 -1.08977,-1.21086c0,-0.66597 0.48434,-1.21086 1.08977,-1.21086c0.60543,0 1.08977,0.54489 1.08977,1.21086" fill="#001026" stroke="none" stroke-width="1" stroke-linecap="butt" stroke-linejoin="miter"/></g><g><path d="M182.82096,163.94355c1.81629,2.66389 1.6952,5.93321 0.06054,7.08352c-1.99792,1.15032 -4.6618,0.30271 -6.47809,-2.36117c-1.87683,-2.66389 -1.99792,-6.11483 -0.12109,-7.44678c1.87683,-1.39249 4.72235,0.06054 6.53863,2.72443z" fill="#ffffff" stroke="#001026" stroke-width="1.2" stroke-linecap="round" stroke-linejoin="round"/><path d="M182.4577,167.45503c0,0.66597 -0.48434,1.21086 -1.08977,1.21086c-0.60543,0 -1.08977,-0.54489 -1.08977,-1.21086c0,-0.66597 0.48434,-1.21086 1.08977,-1.21086c0.60543,0.06054 1.08977,0.54489 1.08977,1.21086" fill="#001026" stroke="none" stroke-width="1" stroke-linecap="butt" stroke-linejoin="miter"/></g></g><text transform="translate(213.05447,187.0448) scale(0.5,0.5)" font-size="40" xml:space="preserve" fill="#c3a6ff" fill-rule="nonzero" stroke="none" stroke-width="1" stroke-linecap="butt" stroke-linejoin="miter" stroke-miterlimit="10" stroke-dasharray="" stroke-dashoffset="0" font-family="Sans Serif" font-weight="normal" text-anchor="start" style="mix-blend-mode: normal"><tspan x="0" dy="0">Lilac Cat OS</tspan></text></g></g></svg>