<svg version="1.1" xmlns="http://www.w3.org/2000/svg" xmlns:xlink="http://www.w3.org/1999/xlink" width="104.70987" height="37.68364" viewBox="0,0,104.70987,37.68364"><g transform="translate(-182.3488,-124.6042)"><g data-paper-data="{&quot;isPaintingLayer&quot;:true}" fill-rule="nonzero" stroke="none" stroke-width="1" stroke-linecap="butt" stroke-linejoin="miter" stroke-miterlimit="10" stroke-dasharray="" stroke-dashoffset="0" style="mix-blend-mode: normal"><text transform="translate(245.12117,152.59091) scale(0.5,0.5)" font-size="40" xml:space="preserve" fill="#37474f" fill-rule="nonzero" stroke="none" stroke-width="1" stroke-linecap="butt" stroke-linejoin="miter" stroke-miterlimit="10" stroke-dasharray="" stroke-dashoffset="0" font-family="Sans Serif" font-weight="normal" text-anchor="start" style="mix-blend-mode: normal"><tspan x="0" dy="0">cmd</tspan></text><path d="M184.70403,124.6042h32.97319c1.30076,0 2.35523,1.05447 2.35523,2.35523v4.71046h-37.68365v-4.71046c0,-1.30076 1.05447,-2.35523 2.35523,-2.35523z" fill="#cfd8dd"/><path d="M184.70403,128.13703c0,-0.65038 0.52724,-1.17761 1.17761,-1.17761c0.65038,0 1.17761,0.52724 1.17761,1.17761c0,0.65038 -0.52724,1.17761 -1.17761,1.17761c-0.65038,0 -1.17761,-0.52724 -1.17761,-1.17761z" fill="#92a6ad"/><path d="M188.23687,128.13703c0,-0.65038 0.52724,-1.17761 1.17761,-1.17761c0.65038,0 1.17761,0.52724 1.17761,1.17761c0,0.65038 -0.52724,1.17761 -1.17761,1.17761c-0.65038,0 -1.17761,-0.52724 -1.17761,-1.17761z" fill="#92a6ad"/><path d="M191.76971,128.13703c0,-0.65038 0.52724,-1.17761 1.17761,-1.17761c0.65038,0 1.17761,0.52724 1.17761,1.17761c0,0.65038 -0.52724,1.17761 -1.17761,1.17761c-0.65038,0 -1.17761,-0.52724 -1.17761,-1.17761z" fill="#92a6ad"/><path d="M182.3488,131.66988h37.68365v28.26273c0,1.30076 -1.05447,2.35523 -2.35523,2.35523h-32.97319c-1.30076,0 -2.35523,-1.05447 -2.35523,-2.35523z" fill="#37474f"/><path d="M185.88164,136.38034l1.17761,-1.17761l3.53284,3.53284l-3.53284,3.53284l-1.17761,-1.17761l2.35523,-2.35523z" fill="#ffffff"/><path d="M191.76971,142.26841v-1.17761h4.71046v1.17761z" fill="#ffffff"/></g></g></svg>